<svg width="20" height="20" viewBox="0 0 20 20" fill="none" xmlns="http://www.w3.org/2000/svg">
<g id="Group 1000005901">
<g id="Group">
<path id="Vector" opacity="0.947" fill-rule="evenodd" clip-rule="evenodd" d="M0.703125 0C3.34636 0 5.98957 0 8.63281 0C9.21375 0.250026 9.44813 0.692734 9.33594 1.32812C10.7292 1.32161 12.1225 1.32812 13.5156 1.34766C14.9023 2.73437 16.2891 4.12109 17.6758 5.50781C17.6953 7.23953 17.7018 8.97129 17.6953 10.7031C17.4609 10.7031 17.2266 10.7031 16.9922 10.7031C16.9922 9.14062 16.9922 7.57812 16.9922 6.01562C15.6511 6.01562 14.3099 6.01562 12.9688 6.01562C12.9688 4.6875 12.9688 3.35937 12.9688 2.03125C11.7578 2.03125 10.5469 2.03125 9.33594 2.03125C9.34246 4.89586 9.33594 7.76043 9.31641 10.625C9.16418 11.0377 8.87121 11.2786 8.4375 11.3477C6.62766 11.3672 4.81777 11.3737 3.00781 11.3672C3.00781 14.0104 3.00781 16.6536 3.00781 19.2969C7.66926 19.2969 12.3307 19.2969 16.9922 19.2969C16.9922 17.9687 16.9922 16.6406 16.9922 15.3125C17.2266 15.3125 17.4609 15.3125 17.6953 15.3125C17.6953 16.875 17.6953 18.4375 17.6953 20C12.5651 20 7.43488 20 2.30469 20C2.30469 17.1224 2.30469 14.2448 2.30469 11.3672C1.76883 11.383 1.23498 11.3635 0.703125 11.3086C0.344453 11.2038 0.110078 10.9759 0 10.625C0 7.3177 0 4.01043 0 0.703125C0.143229 0.377604 0.377604 0.143229 0.703125 0ZM0.859375 0.703125C3.39847 0.696613 5.93754 0.703125 8.47656 0.722656C8.52215 0.76823 8.5677 0.813801 8.61328 0.859375C8.63934 4.0625 8.63934 7.26562 8.61328 10.4687C8.5677 10.5143 8.52215 10.5599 8.47656 10.6055C5.97883 10.6702 3.47881 10.6832 0.976563 10.6445C0.87125 10.6176 0.786617 10.559 0.722656 10.4687C0.696613 7.26562 0.696613 4.0625 0.722656 0.859375C0.776391 0.812301 0.821965 0.760219 0.859375 0.703125ZM1.67969 1.67969C3.67188 1.67969 5.66406 1.67969 7.65625 1.67969C7.65625 2.00521 7.65625 2.33073 7.65625 2.65625C5.66406 2.65625 3.67188 2.65625 1.67969 2.65625C1.67969 2.33073 1.67969 2.00521 1.67969 1.67969ZM13.6719 2.53906C14.6015 3.44916 15.526 4.36711 16.4453 5.29297C15.5209 5.3125 14.5964 5.31902 13.6719 5.3125C13.6719 4.38801 13.6719 3.46354 13.6719 2.53906ZM2.03125 4.33594C2.23958 4.33594 2.44792 4.33594 2.65625 4.33594C2.65625 4.5573 2.65625 4.77863 2.65625 5C2.44792 5 2.23958 5 2.03125 5C2.03125 4.77863 2.03125 4.5573 2.03125 4.33594ZM4.33594 4.33594C4.5573 4.33594 4.77863 4.33594 5 4.33594C5 4.5573 5 4.77863 5 5C4.77863 5 4.5573 5 4.33594 5C4.33594 4.77863 4.33594 4.5573 4.33594 4.33594ZM6.67969 4.33594C6.88801 4.33594 7.09637 4.33594 7.30469 4.33594C7.30469 4.5573 7.30469 4.77863 7.30469 5C7.09637 5 6.88801 5 6.67969 5C6.67969 4.77863 6.67969 4.5573 6.67969 4.33594ZM2.03125 6.67969C2.23958 6.67969 2.44792 6.67969 2.65625 6.67969C2.65625 6.88801 2.65625 7.09637 2.65625 7.30469C2.44792 7.30469 2.23958 7.30469 2.03125 7.30469C2.03125 7.09637 2.03125 6.88801 2.03125 6.67969ZM4.33594 6.67969C4.5573 6.67969 4.77863 6.67969 5 6.67969C5 6.88801 5 7.09637 5 7.30469C4.77863 7.30469 4.5573 7.30469 4.33594 7.30469C4.33594 7.09637 4.33594 6.88801 4.33594 6.67969ZM6.67969 6.67969C6.88801 6.67969 7.09637 6.67969 7.30469 6.67969C7.30469 6.88801 7.30469 7.09637 7.30469 7.30469C7.09637 7.30469 6.88801 7.30469 6.67969 7.30469C6.67969 7.09637 6.67969 6.88801 6.67969 6.67969ZM2.03125 9.02344C2.23958 9.02344 2.44792 9.02344 2.65625 9.02344C2.65625 9.23176 2.65625 9.44012 2.65625 9.64844C2.44792 9.64844 2.23958 9.64844 2.03125 9.64844C2.03125 9.44012 2.03125 9.23176 2.03125 9.02344ZM4.33594 9.02344C4.5573 9.02344 4.77863 9.02344 5 9.02344C5 9.23176 5 9.44012 5 9.64844C4.77863 9.64844 4.5573 9.64844 4.33594 9.64844C4.33594 9.44012 4.33594 9.23176 4.33594 9.02344ZM6.67969 9.02344C6.88801 9.02344 7.09637 9.02344 7.30469 9.02344C7.30469 9.23176 7.30469 9.44012 7.30469 9.64844C7.09637 9.64844 6.88801 9.64844 6.67969 9.64844C6.67969 9.44012 6.67969 9.23176 6.67969 9.02344Z" fill="#2864DC"/>
</g>
<g id="Group_2">
<path id="Vector_2" opacity="0.945" fill-rule="evenodd" clip-rule="evenodd" d="M0.976562 0.976562C3.4375 0.976562 5.89844 0.976562 8.35937 0.976562C8.35937 1.77083 8.35937 2.56511 8.35937 3.35937C5.89844 3.35937 3.4375 3.35937 0.976562 3.35937C0.976562 2.56511 0.976562 1.77083 0.976562 0.976562ZM1.67969 1.67969C1.67969 2.00521 1.67969 2.33073 1.67969 2.65625C3.67187 2.65625 5.66406 2.65625 7.65625 2.65625C7.65625 2.33073 7.65625 2.00521 7.65625 1.67969C5.66406 1.67969 3.67187 1.67969 1.67969 1.67969Z" fill="#2864DC"/>
</g>
<g id="Group_3">
<path id="Vector_3" opacity="0.941" fill-rule="evenodd" clip-rule="evenodd" d="M1.91381 3.63283C3.13171 3.43809 3.60697 3.94592 3.3396 5.15627C3.24942 5.48455 3.03457 5.66033 2.69506 5.68361C1.47267 5.84045 1.02345 5.3131 1.34741 4.10158C1.46226 3.84951 1.65106 3.69326 1.91381 3.63283ZM2.031 4.33596C2.031 4.55732 2.031 4.77865 2.031 5.00002C2.23933 5.00002 2.44767 5.00002 2.656 5.00002C2.656 4.77865 2.656 4.55732 2.656 4.33596C2.44767 4.33596 2.23933 4.33596 2.031 4.33596Z" fill="#2864DC"/>
</g>
<g id="Group_4">
<path id="Vector_4" opacity="0.941" fill-rule="evenodd" clip-rule="evenodd" d="M4.25803 3.63278C4.58627 3.61833 4.91178 3.63786 5.23459 3.69138C5.5001 3.7852 5.64983 3.97399 5.68381 4.25778C5.90534 5.40341 5.44311 5.87868 4.29709 5.68356C4.04936 5.66958 3.86054 5.55891 3.73069 5.35153C3.61618 4.92579 3.60316 4.4961 3.69162 4.06247C3.81579 3.82848 4.00459 3.68525 4.25803 3.63278ZM4.33616 4.33591C4.33616 4.55727 4.33616 4.7786 4.33616 4.99997C4.55752 4.99997 4.77885 4.99997 5.00022 4.99997C5.00022 4.7786 5.00022 4.55727 5.00022 4.33591C4.77885 4.33591 4.55752 4.33591 4.33616 4.33591Z" fill="#2864DC"/>
</g>
<g id="Group_5">
<path id="Vector_5" opacity="0.941" fill-rule="evenodd" clip-rule="evenodd" d="M6.56251 3.63284C7.82302 3.45492 8.29829 3.98878 7.98829 5.23441C7.87505 5.50394 7.67321 5.6537 7.38282 5.68362C7.05544 5.71437 6.72993 5.70136 6.40626 5.64456C6.18501 5.55347 6.04829 5.39069 5.9961 5.15628C5.97005 4.83077 5.97005 4.50523 5.9961 4.17972C6.07907 3.88182 6.26786 3.69953 6.56251 3.63284ZM6.6797 4.33597C6.6797 4.55734 6.6797 4.77866 6.6797 5.00003C6.88802 5.00003 7.09638 5.00003 7.3047 5.00003C7.3047 4.77866 7.3047 4.55734 7.3047 4.33597C7.09638 4.33597 6.88802 4.33597 6.6797 4.33597Z" fill="#2864DC"/>
</g>
<g id="Group_6">
<path id="Vector_6" opacity="0.943" fill-rule="evenodd" clip-rule="evenodd" d="M1.83609 5.97653C3.07239 5.73501 3.57369 6.22978 3.33999 7.46091C3.27711 7.71017 3.12738 7.88595 2.89077 7.98825C1.56916 8.28122 1.05484 7.76689 1.34781 6.44528C1.43405 6.20454 1.59681 6.04829 1.83609 5.97653ZM2.0314 6.67966C2.0314 6.88798 2.0314 7.09634 2.0314 7.30466C2.23973 7.30466 2.44807 7.30466 2.6564 7.30466C2.6564 7.09634 2.6564 6.88798 2.6564 6.67966C2.44807 6.67966 2.23973 6.67966 2.0314 6.67966Z" fill="#2864DC"/>
</g>
<g id="Group_7">
<path id="Vector_7" opacity="0.941" fill-rule="evenodd" clip-rule="evenodd" d="M4.17969 5.97655C4.50547 5.97007 4.83098 5.97655 5.15625 5.99608C5.4716 6.07702 5.64738 6.27886 5.68359 6.60155C5.86031 7.84347 5.33297 8.30569 4.10156 7.98827C3.84998 7.87995 3.70024 7.69116 3.65234 7.42186C3.6263 7.13542 3.6263 6.84893 3.65234 6.56249C3.7138 6.26034 3.88958 6.06503 4.17969 5.97655ZM4.33594 6.67968C4.33594 6.888 4.33594 7.09636 4.33594 7.30468C4.55731 7.30468 4.77863 7.30468 5 7.30468C5 7.09636 5 6.888 5 6.67968C4.77863 6.67968 4.55731 6.67968 4.33594 6.67968Z" fill="#2864DC"/>
</g>
<g id="Group_8">
<path id="Vector_8" opacity="0.943" fill-rule="evenodd" clip-rule="evenodd" d="M6.52345 5.97655C6.84923 5.97007 7.17474 5.97655 7.50001 5.99608C7.74884 6.05218 7.91161 6.2019 7.98829 6.4453C8.28126 7.7669 7.76692 8.28124 6.44532 7.98827C6.20192 7.91159 6.0522 7.74882 5.9961 7.49999C5.97005 7.17448 5.97005 6.84893 5.9961 6.52343C6.07626 6.24155 6.25204 6.05925 6.52345 5.97655ZM6.6797 6.67968C6.6797 6.888 6.6797 7.09636 6.6797 7.30468C6.88802 7.30468 7.09638 7.30468 7.3047 7.30468C7.3047 7.09636 7.3047 6.888 7.3047 6.67968C7.09638 6.67968 6.88802 6.67968 6.6797 6.67968Z" fill="#2864DC"/>
</g>
<g id="Group_9">
<path id="Vector_9" opacity="0.899" fill-rule="evenodd" clip-rule="evenodd" d="M10.6641 6.99219C10.8984 6.99219 11.1328 6.99219 11.3672 6.99219C11.3672 7.22656 11.3672 7.46094 11.3672 7.69531C11.1328 7.69531 10.8984 7.69531 10.6641 7.69531C10.6641 7.46094 10.6641 7.22656 10.6641 6.99219Z" fill="#2864DC"/>
</g>
<g id="Group_10">
<path id="Vector_10" opacity="0.943" fill-rule="evenodd" clip-rule="evenodd" d="M11.9922 6.99219C13.3333 6.99219 14.6745 6.99219 16.0156 6.99219C16.0156 7.22656 16.0156 7.46094 16.0156 7.69531C14.6745 7.69531 13.3333 7.69531 11.9922 7.69531C11.9922 7.46094 11.9922 7.22656 11.9922 6.99219Z" fill="#2864DC"/>
</g>
<g id="Group_11">
<path id="Vector_11" opacity="0.942" fill-rule="evenodd" clip-rule="evenodd" d="M1.7968 8.32031C3.05185 8.05855 3.56617 8.55331 3.33977 9.80468C3.27089 10.0688 3.10813 10.2446 2.85149 10.332C2.51294 10.3581 2.1744 10.3581 1.83586 10.332C1.63228 10.2923 1.48254 10.1816 1.38664 9.99999C1.32444 9.59925 1.31142 9.19558 1.34758 8.78906C1.42644 8.56054 1.57618 8.40429 1.7968 8.32031ZM2.03117 9.02343C2.03117 9.23175 2.03117 9.44011 2.03117 9.64843C2.23951 9.64843 2.44784 9.64843 2.65617 9.64843C2.65617 9.44011 2.65617 9.23175 2.65617 9.02343C2.44784 9.02343 2.23951 9.02343 2.03117 9.02343Z" fill="#2864DC"/>
</g>
<g id="Group_12">
<path id="Vector_12" opacity="0.941" fill-rule="evenodd" clip-rule="evenodd" d="M4.14085 8.32033C5.35378 8.04279 5.86811 8.51154 5.68382 9.72658C5.64761 10.0493 5.47183 10.2511 5.15647 10.332C3.94229 10.6022 3.44098 10.1269 3.65257 8.90627C3.71157 8.61978 3.87433 8.42447 4.14085 8.32033ZM4.33616 9.02346C4.33616 9.23178 4.33616 9.44014 4.33616 9.64846C4.55753 9.64846 4.77886 9.64846 5.00022 9.64846C5.00022 9.44014 5.00022 9.23178 5.00022 9.02346C4.77886 9.02346 4.55753 9.02346 4.33616 9.02346Z" fill="#2864DC"/>
</g>
<g id="Group_13">
<path id="Vector_13" opacity="0.942" fill-rule="evenodd" clip-rule="evenodd" d="M6.48424 8.3203C6.83603 8.31382 7.18759 8.3203 7.53892 8.33983C7.76783 8.41245 7.91756 8.56222 7.98814 8.78905C8.0142 9.15362 8.0142 9.51823 7.98814 9.8828C7.91259 10.1276 7.74986 10.2774 7.49986 10.332C6.24384 10.5864 5.74252 10.0851 5.99595 8.82811C6.08787 8.58651 6.25064 8.41725 6.48424 8.3203ZM6.67955 9.02343C6.67955 9.23175 6.67955 9.44011 6.67955 9.64843C6.88787 9.64843 7.09623 9.64843 7.30455 9.64843C7.30455 9.44011 7.30455 9.23175 7.30455 9.02343C7.09623 9.02343 6.88787 9.02343 6.67955 9.02343Z" fill="#2864DC"/>
</g>
<g id="Group_14">
<path id="Vector_14" opacity="0.899" fill-rule="evenodd" clip-rule="evenodd" d="M10.6641 8.32031C10.8984 8.32031 11.1328 8.32031 11.3672 8.32031C11.3672 8.55469 11.3672 8.78906 11.3672 9.02344C11.1328 9.02344 10.8984 9.02344 10.6641 9.02344C10.6641 8.78906 10.6641 8.55469 10.6641 8.32031Z" fill="#2864DC"/>
</g>
<g id="Group_15">
<path id="Vector_15" opacity="0.943" fill-rule="evenodd" clip-rule="evenodd" d="M11.9922 8.32031C13.3333 8.32031 14.6745 8.32031 16.0156 8.32031C16.0156 8.55469 16.0156 8.78906 16.0156 9.02344C14.6745 9.02344 13.3333 9.02344 11.9922 9.02344C11.9922 8.78906 11.9922 8.55469 11.9922 8.32031Z" fill="#2864DC"/>
</g>
<g id="Group_16">
<path id="Vector_16" opacity="0.9" fill-rule="evenodd" clip-rule="evenodd" d="M10.6641 9.64844C10.8984 9.64844 11.1328 9.64844 11.3672 9.64844C11.3672 9.88281 11.3672 10.1172 11.3672 10.3516C11.1328 10.3516 10.8984 10.3516 10.6641 10.3516C10.6641 10.1172 10.6641 9.88281 10.6641 9.64844Z" fill="#2864DC"/>
</g>
<g id="Group_17">
<path id="Vector_17" opacity="0.943" fill-rule="evenodd" clip-rule="evenodd" d="M11.9922 9.64844C13.3333 9.64844 14.6745 9.64844 16.0156 9.64844C16.0156 9.88281 16.0156 10.1172 16.0156 10.3516C14.6745 10.3516 13.3333 10.3516 11.9922 10.3516C11.9922 10.1172 11.9922 9.88281 11.9922 9.64844Z" fill="#2864DC"/>
</g>
<g id="Group_18">
<path id="Vector_18" opacity="0.936" fill-rule="evenodd" clip-rule="evenodd" d="M20 11.0937C20 11.263 20 11.4323 20 11.6016C19.9432 11.7152 19.8846 11.8323 19.8242 11.9531C17.8646 13.9128 15.905 15.8724 13.9453 17.832C13.3464 18.1055 12.7474 18.3789 12.1484 18.6523C11.869 18.7241 11.6997 18.62 11.6406 18.3398C11.9107 17.673 12.2037 17.0155 12.5195 16.3672C14.4661 14.4206 16.4128 12.4739 18.3594 10.5273C19.1115 10.1557 19.6584 10.3445 20 11.0937ZM18.9453 11.0156C19.2537 11.0691 19.3514 11.2384 19.2383 11.5234C19.1595 11.6087 19.0749 11.6869 18.9844 11.7578C18.8352 11.6282 18.692 11.4915 18.5547 11.3477C18.6704 11.2119 18.8005 11.1012 18.9453 11.0156ZM18.0078 11.875C18.1799 11.9881 18.3361 12.1248 18.4766 12.2852C18.4148 12.3748 18.3367 12.4269 18.2422 12.4414C18.112 12.3112 17.9818 12.181 17.8516 12.0508C17.9118 11.9972 17.9639 11.9386 18.0078 11.875ZM17.3047 12.5781C17.4768 12.6912 17.633 12.828 17.7734 12.9883C16.3542 14.4075 14.9349 15.8268 13.5156 17.2461C13.2597 17.3745 12.9993 17.4787 12.7344 17.5586C12.8655 17.3087 12.9891 17.0548 13.1055 16.7969C14.5131 15.3958 15.9128 13.9895 17.3047 12.5781Z" fill="#2864DC"/>
</g>
<g id="Group_19">
<path id="Vector_19" opacity="0.899" fill-rule="evenodd" clip-rule="evenodd" d="M10.6641 10.9766C10.8984 10.9766 11.1328 10.9766 11.3672 10.9766C11.3672 11.2109 11.3672 11.4453 11.3672 11.6797C11.1328 11.6797 10.8984 11.6797 10.6641 11.6797C10.6641 11.4453 10.6641 11.2109 10.6641 10.9766Z" fill="#2864DC"/>
</g>
<g id="Group_20">
<path id="Vector_20" opacity="0.943" fill-rule="evenodd" clip-rule="evenodd" d="M11.9922 10.9766C13.3333 10.9766 14.6745 10.9766 16.0156 10.9766C16.0156 11.2109 16.0156 11.4453 16.0156 11.6797C14.6745 11.6797 13.3333 11.6797 11.9922 11.6797C11.9922 11.4453 11.9922 11.2109 11.9922 10.9766Z" fill="#2864DC"/>
</g>
<g id="Group_21">
<path id="Vector_21" opacity="0.934" fill-rule="evenodd" clip-rule="evenodd" d="M7.18741 11.9922C8.83971 11.8771 10.0311 12.5542 10.7616 14.0235C11.3099 15.607 10.9518 16.9416 9.68741 18.0274C8.63889 18.7362 7.51912 18.8665 6.32803 18.418C4.76463 17.6024 4.1201 16.3198 4.39444 14.5703C4.80983 13.1456 5.7408 12.2862 7.18741 11.9922ZM7.26553 12.6953C8.6078 12.6077 9.56483 13.1676 10.1366 14.375C10.5634 15.8319 10.1272 16.9451 8.82803 17.7149C7.42885 18.2588 6.28951 17.9267 5.41006 16.7188C4.71549 15.3217 4.9694 14.1303 6.17178 13.1446C6.51686 12.9365 6.88147 12.7867 7.26553 12.6953Z" fill="#2864DC"/>
</g>
<g id="Group_22">
<path id="Vector_22" opacity="0.934" fill-rule="evenodd" clip-rule="evenodd" d="M7.30461 13.3203C7.53899 13.3203 7.77336 13.3203 8.00774 13.3203C8.00129 13.4382 8.00781 13.5554 8.02727 13.6719C8.50988 13.7628 8.83543 14.0362 9.00383 14.4922C9.02313 14.556 9.02961 14.6211 9.02336 14.6875C8.78754 14.7004 8.55317 14.6873 8.32024 14.6484C8.1452 14.4503 7.92383 14.3461 7.65617 14.3359C7.41699 14.3482 7.21516 14.4394 7.0507 14.6094C7.05652 14.7467 7.12817 14.8444 7.26555 14.9023C7.52168 14.9668 7.78211 15.0059 8.0468 15.0195C8.83285 15.1802 9.12582 15.6424 8.9257 16.4062C8.70899 16.7134 8.41602 16.9087 8.0468 16.9922C8.00836 17.1066 7.99535 17.2237 8.00774 17.3437C7.77336 17.3437 7.53899 17.3437 7.30461 17.3437C7.31106 17.2259 7.30453 17.1087 7.28508 16.9922C6.84563 16.903 6.53313 16.6555 6.34758 16.25C6.32817 16.1598 6.32168 16.0686 6.32805 15.9766C6.56387 15.9637 6.79824 15.9767 7.03117 16.0156C7.08383 16.1138 7.16195 16.1854 7.26555 16.2305C7.53899 16.3607 7.81242 16.3607 8.08586 16.2305C8.39199 16.0585 8.37895 15.9022 8.0468 15.7617C7.78981 15.7036 7.52938 15.6645 7.26555 15.6445C6.59613 15.497 6.29016 15.0868 6.34758 14.4141C6.53473 14.008 6.84723 13.7606 7.28508 13.6719C7.30453 13.5554 7.31106 13.4382 7.30461 13.3203Z" fill="#2864DC"/>
</g>
</g>
</svg>
