<svg width="20" height="20" viewBox="0 0 20 20" fill="none" xmlns="http://www.w3.org/2000/svg">
<g id="Group">
<path id="Vector" opacity="0.925" fill-rule="evenodd" clip-rule="evenodd" d="M18.4609 0.00596974C19.5057 -0.0668372 20.0186 0.526322 19.9995 1.78545C19.0096 4.5078 17.9839 7.21187 16.9223 9.89779C16.9316 10.0711 16.9316 10.2455 16.9223 10.4212C16.7647 10.793 16.613 11.1681 16.4672 11.5464C17.1809 12.021 17.8888 12.5095 18.5909 13.0119C18.778 13.189 18.8141 13.4071 18.6992 13.6661C18.191 15.0505 17.6709 16.4288 17.139 17.8008C16.8907 18.3568 16.5657 18.8366 16.1638 19.2401C17.3051 19.2575 18.4464 19.275 19.5877 19.2924C19.8226 19.4713 19.8515 19.6894 19.6744 19.9466C13.175 20.0076 6.67376 20.0163 0.170831 19.9728C-0.0414421 19.7885 -0.0558878 19.5791 0.127489 19.3447C0.384096 19.2881 0.644144 19.2445 0.907633 19.2139C0.562892 17.8016 0.924068 16.7461 1.99117 16.0475C2.28383 15.9088 2.58722 15.8477 2.90133 15.8643C3.30085 14.3925 4.13882 13.7906 5.41513 14.0586C5.58277 14.1116 5.74166 14.1901 5.89188 14.2942C5.90632 14.268 5.92079 14.2418 5.93523 14.2157C5.69303 13.0921 5.70747 11.9755 5.97857 10.866C4.38049 10.6802 3.27528 9.69451 2.66296 7.90896C2.40402 6.93129 2.40402 5.9543 2.66296 4.97805C2.69907 4.93445 2.73519 4.8908 2.77131 4.8472C4.65098 4.73876 5.92955 5.74192 6.60702 7.85662C6.67034 8.15165 6.72811 8.44825 6.78038 8.74636C7.06045 8.286 7.38551 7.87604 7.75556 7.51643C7.35712 6.66301 7.21986 5.7471 7.34382 4.7687C7.65241 2.87837 8.56981 1.6659 10.096 1.13123C10.226 1.09634 10.356 1.09634 10.4861 1.13123C10.829 1.63916 11.0385 2.22357 11.1145 2.88454C11.2807 5.09236 10.5511 6.68865 8.92578 7.67344C8.74058 7.75378 8.55278 7.8236 8.36234 7.88279C6.53624 9.73366 5.99447 12.0278 6.73704 14.7652C7.40454 13.9899 8.17745 13.7892 9.0558 14.1633C9.24646 14.2631 9.41982 14.3939 9.5759 14.5558C9.68286 14.0549 9.82013 13.5664 9.98764 13.0904C10.4185 11.9626 10.8375 10.8286 11.2445 9.68844C11.3261 9.34767 11.5067 9.23425 11.7863 9.34825C12.5608 9.64144 13.3265 9.96421 14.0834 10.3165C14.2392 9.88298 14.3909 9.44685 14.5385 9.00805C14.6 8.90746 14.6795 8.83769 14.7769 8.7987C15.7334 6.1099 16.6941 3.4232 17.6591 0.738697C17.8485 0.360558 18.1158 0.116313 18.4609 0.00596974ZM18.5909 0.738697C19.0469 0.704929 19.3214 0.957898 19.4144 1.49759C18.452 4.14468 17.448 6.77025 16.4022 9.37441C16.1238 9.12346 15.8132 8.96644 15.4703 8.90338C16.3672 6.24766 17.3062 3.61329 18.2875 1.00039C18.3839 0.899165 18.4851 0.811939 18.5909 0.738697ZM10.096 1.89013C10.1995 1.92776 10.2645 2.01495 10.291 2.15181C10.758 3.76026 10.4907 5.16469 9.48921 6.365C9.14565 6.71796 8.75558 6.97091 8.319 7.12389C8.10732 6.76753 7.98453 6.36625 7.9506 5.92013C7.8611 3.93543 8.57623 2.59208 10.096 1.89013ZM3.98487 5.76311C4.73957 6.00057 5.32468 6.54138 5.74019 7.38558C6.14478 8.24109 6.25313 9.14832 6.06525 10.1071C4.24474 9.85398 3.24791 8.62405 3.0747 6.41734C3.07347 6.22944 3.09514 6.04626 3.13971 5.86779C4.04117 6.72948 4.69129 7.81114 5.09007 9.11273C5.27787 9.39184 5.46571 9.39184 5.65351 9.11273C5.68918 8.89092 5.66027 8.68157 5.56682 8.48467C5.19903 7.43834 4.6717 6.53112 3.98487 5.76311ZM15.0369 9.58377C15.5489 9.57984 15.9534 9.82405 16.2505 10.3165C15.9543 11.0318 15.6581 11.747 15.362 12.4623C15.2856 12.9461 15.4373 13.1118 15.817 12.9595C15.9561 12.7373 16.0789 12.5017 16.1854 12.253C16.781 12.6256 17.3662 13.0182 17.9408 13.4306C17.9873 13.4693 18.0162 13.5216 18.0275 13.5876C17.5458 14.9136 17.0474 16.2308 16.5322 17.5391C16.1802 18.2258 15.7251 18.7928 15.1669 19.2401C14.1842 19.2837 13.2018 19.2749 12.2197 19.2139C12.577 17.5268 12.0713 16.419 10.7028 15.8905C10.5445 15.8643 10.3856 15.8557 10.226 15.8643C10.1122 15.3361 10.1338 14.8127 10.291 14.2942C10.7627 12.9076 11.2467 11.5294 11.743 10.1595C12.0662 10.2459 12.384 10.3593 12.6965 10.4997C13.0787 10.668 13.4544 10.8512 13.8233 11.0492C13.5586 11.7409 13.3058 12.4388 13.0649 13.1427C12.7276 14.3238 12.6553 15.5275 12.8482 16.754C12.9591 16.9031 13.0963 16.9468 13.2599 16.8849C14.2754 16.1645 15.0339 15.1613 15.5353 13.8755C15.604 13.3652 15.4379 13.1995 15.0369 13.3782C14.6576 14.3599 14.1159 15.1886 13.4116 15.8643C13.3352 15.124 13.3929 14.3912 13.585 13.6661C14.0577 12.2979 14.5416 10.9371 15.0369 9.58377ZM4.72167 14.7129C5.41218 14.701 5.91061 15.0673 6.21694 15.812C6.28811 16.0845 6.33145 16.3636 6.34697 16.6494C6.53477 16.8587 6.72261 16.8587 6.91041 16.6494C6.94157 16.4033 6.93437 16.1591 6.88873 15.9166C7.2147 14.9783 7.79257 14.6033 8.62239 14.7914C9.14456 14.9851 9.46239 15.3863 9.5759 15.9951C9.37393 16.0995 9.18608 16.2304 9.01246 16.3877C8.59534 15.9726 8.11859 15.8069 7.5822 15.8905C7.40324 16.0282 7.36714 16.2113 7.47384 16.44C7.51298 16.5029 7.56352 16.5465 7.62554 16.5708C8.60501 16.6894 9.13234 17.3437 9.2075 18.5335C9.51075 18.8038 9.70579 18.7165 9.7926 18.2718C9.78012 17.8008 9.66453 17.3733 9.44587 16.9895C9.97022 16.5072 10.5192 16.4722 11.0928 16.8849C11.7486 17.5205 11.8931 18.2968 11.5263 19.2139C8.21788 19.2837 4.90947 19.2837 1.60109 19.2139C1.23434 18.2965 1.37882 17.5202 2.03451 16.8849C2.601 16.4801 3.14999 16.5063 3.68148 16.9634C3.41064 17.4457 3.31676 17.969 3.39976 18.5335C3.57312 18.7429 3.74649 18.7429 3.91985 18.5335C3.99501 17.3437 4.52234 16.6894 5.50181 16.5708C5.67765 16.4689 5.74266 16.3032 5.69685 16.0736C5.67518 15.9777 5.6246 15.9166 5.54515 15.8905C5.00876 15.8069 4.53201 15.9726 4.11489 16.3877C3.91985 16.2262 3.71758 16.0779 3.50811 15.9428C3.72374 15.2546 4.12824 14.8446 4.72167 14.7129Z" fill="#2864DC"/>
</g>
</svg>
