<svg width="20" height="20" viewBox="0 0 20 20" fill="none" xmlns="http://www.w3.org/2000/svg">
<g id="Group 1000005913">
<g id="Group">
<path id="Vector" opacity="0.947" fill-rule="evenodd" clip-rule="evenodd" d="M15.5611 0C15.6922 0 15.8232 0 15.9543 0C16.083 0.0984172 16.1922 0.215605 16.2819 0.351562C16.7639 1.05712 17.2007 1.78629 17.5924 2.53906C17.7911 2.92414 17.9149 3.32778 17.9637 3.75C17.9384 4.26121 17.7345 4.70395 17.3522 5.07812C18.3323 5.73957 19.0968 6.55988 19.6456 7.53906C20.0692 8.37102 20.1129 9.21738 19.7766 10.0781C19.3108 10.9279 18.5463 11.2924 17.4832 11.1719C17.5413 13.2642 17.4176 15.3475 17.1119 17.4219C17.0184 18.0481 16.8583 18.6601 16.6314 19.2578C16.507 19.57 16.2959 19.8174 15.9979 20C15.8232 20 15.6485 20 15.4737 20C15.2249 19.8749 15.0428 19.6926 14.9277 19.4531C14.6995 18.9494 14.5393 18.4286 14.4472 17.8906C14.1131 15.9362 13.953 13.9701 13.9666 11.9922C13.0306 12.65 12.4773 13.5094 12.3066 14.5703C12.2921 15.2214 12.2775 15.8724 12.263 16.5234C12.0062 17.8599 11.1981 18.83 9.83848 19.4336C8.46767 19.905 7.11346 19.8659 5.77585 19.3164C2.96546 18.1653 1.138 16.2577 0.293486 13.5937C0.18244 13.1949 0.10235 12.7913 0.0532227 12.3828C0.0839283 12.0169 0.302349 11.8802 0.708485 11.9727C0.770989 11.9908 0.821955 12.0234 0.86138 12.0703C1.24959 14.5304 2.5674 16.477 4.8148 17.9102C5.6451 18.4008 6.54792 18.7393 7.52322 18.9258C9.28574 19.0529 10.5162 18.3953 11.2145 16.9531C11.2651 16.7853 11.3088 16.616 11.3456 16.4453C11.3601 15.7943 11.3747 15.1432 11.3893 14.4922C11.6292 12.9682 12.4811 11.8094 13.9448 11.0156C13.9989 9.45812 14.1518 7.90867 14.4035 6.36719C14.4615 6.05523 14.5416 5.74922 14.6437 5.44922C14.1346 5.15027 13.7925 4.74012 13.6172 4.21875C10.849 3.03787 8.10417 3.08344 5.38269 4.35547C3.20342 5.52387 1.78369 7.21008 1.12349 9.41406C0.956572 9.64426 0.730874 9.70285 0.44638 9.58984C0.3278 9.49492 0.254991 9.37773 0.227959 9.23828C1.06887 6.35418 3.02009 4.32293 6.08164 3.14453C8.60497 2.31494 11.1096 2.36051 13.5953 3.28125C14.0219 2.27097 14.5534 1.30743 15.1898 0.390625C15.2837 0.234268 15.4075 0.104059 15.5611 0ZM15.7358 1.21094C16.3248 1.99111 16.7617 2.83746 17.0464 3.75C16.8168 4.68582 16.1907 5.01785 15.1679 4.74609C14.5088 4.38102 14.3194 3.87319 14.6001 3.22266C14.9161 2.52067 15.2947 1.8501 15.7358 1.21094ZM15.5174 5.66406C15.6419 5.70668 15.7656 5.70668 15.8887 5.66406C15.93 5.67988 15.9592 5.70594 15.9761 5.74219C16.2328 6.73223 16.3857 7.7348 16.4348 8.75C15.9688 8.80207 15.5029 8.80207 15.0369 8.75C15.087 7.70695 15.2472 6.67832 15.5174 5.66406ZM16.959 5.89844C17.7734 6.42902 18.3922 7.10609 18.8156 7.92969C19.0784 8.50246 19.1221 9.0884 18.9466 9.6875C18.658 10.243 18.1702 10.4644 17.4832 10.3516C17.4369 8.8541 17.2622 7.36973 16.959 5.89844ZM14.9495 9.57031C15.474 9.6173 15.9983 9.6173 16.5222 9.57031C16.5947 11.4332 16.5729 13.2952 16.4566 15.1562C16.3879 16.2896 16.2132 17.4094 15.9324 18.5156C15.8797 18.6768 15.8141 18.833 15.7358 18.9844C15.5364 18.5445 15.3981 18.0888 15.3208 17.6172C14.9167 14.9425 14.7929 12.2603 14.9495 9.57031Z" fill="#2864DC"/>
</g>
<g id="Group_2">
<path id="Vector_2" opacity="0.944" fill-rule="evenodd" clip-rule="evenodd" d="M9.66387 4.53126C10.6611 4.41591 11.3528 4.76747 11.7389 5.58595C11.9887 6.53896 11.6173 7.20954 10.6249 7.59767C9.55916 7.82103 8.80924 7.48899 8.37519 6.60157C8.13161 5.56552 8.56115 4.8754 9.66387 4.53126ZM9.79493 5.35157C9.64015 5.41806 9.50181 5.50919 9.37993 5.62501C9.13682 6.01872 9.1878 6.37677 9.53282 6.69923C10.123 6.98083 10.5672 6.85712 10.8652 6.32814C10.9445 5.62427 10.5877 5.29876 9.79493 5.35157Z" fill="#2864DC"/>
</g>
<g id="Group_3">
<path id="Vector_3" opacity="0.944" fill-rule="evenodd" clip-rule="evenodd" d="M4.8587 6.48439C5.85596 6.36903 6.54766 6.7206 6.9337 7.53907C7.18348 8.49208 6.81217 9.16267 5.81975 9.55079C4.75399 9.77415 4.00406 9.44212 3.57001 8.5547C3.32643 7.51864 3.75598 6.82853 4.8587 6.48439ZM4.98975 7.3047C4.83498 7.37118 4.69663 7.46232 4.57475 7.57814C4.33165 7.97185 4.38263 8.32989 4.72765 8.65235C5.31786 8.93396 5.762 8.81025 6.06001 8.28126C6.1393 7.57739 5.78253 7.25189 4.98975 7.3047Z" fill="#2864DC"/>
</g>
<g id="Group_4">
<path id="Vector_4" opacity="0.908" fill-rule="evenodd" clip-rule="evenodd" d="M0.228085 10.3906C0.744624 10.3252 0.955763 10.5205 0.861505 10.9766C0.701835 11.1631 0.490697 11.2217 0.228085 11.1523C0.0195146 11.0096 -0.0460116 10.8208 0.0315059 10.5859C0.0911654 10.5132 0.156692 10.4481 0.228085 10.3906Z" fill="#2864DC"/>
</g>
<g id="Group_5">
<path id="Vector_5" opacity="0.944" fill-rule="evenodd" clip-rule="evenodd" d="M3.54815 11.1719C4.54541 11.0565 5.23711 11.4081 5.62315 12.2266C5.87293 13.1796 5.50162 13.8502 4.5092 14.2383C3.44344 14.4617 2.69351 14.1296 2.25946 13.2422C2.01589 12.2061 2.44545 11.516 3.54815 11.1719ZM3.6792 11.9922C3.52443 12.0587 3.38608 12.1498 3.2642 12.2656C3.02111 12.6593 3.07207 13.0174 3.4171 13.3399C4.00731 13.6215 4.45145 13.4977 4.74946 12.9688C4.82875 12.2649 4.47198 11.9394 3.6792 11.9922Z" fill="#2864DC"/>
</g>
<g id="Group_6">
<path id="Vector_6" opacity="0.944" fill-rule="evenodd" clip-rule="evenodd" d="M7.47979 14.2969C8.47706 14.1815 9.16875 14.5331 9.55479 15.3516C9.80458 16.3046 9.43326 16.9752 8.44084 17.3633C7.37508 17.5867 6.62515 17.2546 6.19111 16.3672C5.94753 15.3311 6.37707 14.641 7.47979 14.2969ZM7.61084 15.1172C7.45607 15.1837 7.31772 15.2748 7.19584 15.3906C6.95274 15.7843 7.00372 16.1424 7.34874 16.4649C7.93896 16.7465 8.38309 16.6227 8.68111 16.0938C8.76039 15.3899 8.40362 15.0644 7.61084 15.1172Z" fill="#2864DC"/>
</g>
</g>
</svg>
