<svg width="22" height="20" viewBox="0 0 22 20" fill="none" xmlns="http://www.w3.org/2000/svg">
<g id="Group 1000005906">
<g id="Group">
<path id="Vector" opacity="0.936" fill-rule="evenodd" clip-rule="evenodd" d="M21.0159 5.92157C21.0159 6.1307 21.0159 6.33988 21.0159 6.54902C20.7921 7.11866 20.3738 7.36702 19.761 7.29411C19.7218 8.35262 19.7087 9.41145 19.7218 10.4706C20.0097 10.4641 20.2973 10.4706 20.5846 10.4902C20.7774 10.5202 20.9212 10.6182 21.0159 10.7843C21.0159 11.2811 21.0159 11.7778 21.0159 12.2745C20.9425 12.3933 20.8379 12.4782 20.7022 12.5294C20.4542 12.549 20.2058 12.5555 19.9571 12.549C19.9636 12.8369 19.9571 13.1245 19.9375 13.4118C19.9252 13.5869 19.8403 13.7111 19.6826 13.7843C19.5028 13.8323 19.3198 13.852 19.1336 13.8431C19.1336 14.7843 19.1336 15.7255 19.1336 16.6667C19.291 16.6601 19.4478 16.6667 19.6042 16.6863C19.7834 16.748 19.8945 16.8721 19.9375 17.0588C19.9571 17.3592 19.9636 17.6598 19.9571 17.9608C20.2189 17.9543 20.4803 17.9608 20.7414 17.9804C20.8535 18.0468 20.945 18.1318 21.0159 18.2353C21.0159 18.732 21.0159 19.2287 21.0159 19.7255C20.9425 19.8443 20.8379 19.9292 20.7022 19.9804C17.6564 20.0065 14.6107 20.0065 11.5649 19.9804C11.4037 19.8428 11.371 19.6794 11.4669 19.4902C11.5128 19.4356 11.5717 19.4029 11.6434 19.3921C14.5715 19.3725 17.4996 19.366 20.4277 19.3725C20.4277 19.1111 20.4277 18.8497 20.4277 18.5882C14.1401 18.5882 7.85252 18.5882 1.56495 18.5882C1.56495 18.8497 1.56495 19.1111 1.56495 19.3725C4.5323 19.366 7.49961 19.3725 10.4669 19.3921C10.6622 19.504 10.7145 19.6674 10.6238 19.8823C10.5846 19.915 10.5453 19.9477 10.5061 19.9804C7.42114 20.0065 4.33619 20.0065 1.25123 19.9804C1.11549 19.9292 1.01091 19.8443 0.9375 19.7255C0.9375 19.2287 0.9375 18.732 0.9375 18.2353C1.00844 18.1318 1.09995 18.0468 1.21201 17.9804C1.47312 17.9608 1.73456 17.9543 1.99632 17.9608C1.9898 17.6598 1.99633 17.3592 2.01593 17.0588C2.0589 16.8721 2.17001 16.748 2.34926 16.6863C2.50559 16.6667 2.66245 16.6601 2.81985 16.6667C2.81985 15.7255 2.81985 14.7843 2.81985 13.8431C2.63366 13.852 2.45065 13.8323 2.27083 13.7843C2.11316 13.7111 2.0282 13.5869 2.01593 13.4118C1.99633 13.1245 1.9898 12.8369 1.99632 12.549C1.74761 12.5555 1.49925 12.549 1.25123 12.5294C1.11549 12.4782 1.01091 12.3933 0.9375 12.2745C0.9375 11.7778 0.9375 11.2811 0.9375 10.7843C1.03223 10.6182 1.17602 10.5202 1.36887 10.4902C1.65616 10.4706 1.94374 10.4641 2.23162 10.4706C2.24468 9.41145 2.23161 8.35262 2.1924 7.29411C1.57964 7.36702 1.16134 7.11866 0.9375 6.54902C0.9375 6.33988 0.9375 6.1307 0.9375 5.92157C1.04102 5.68043 1.19788 5.4778 1.40809 5.31372C4.38182 3.61121 7.34914 1.8988 10.31 0.176471C10.7545 -0.0588235 11.1989 -0.0588235 11.6434 0.176471C14.6987 1.92297 17.7379 3.69421 20.761 5.49019C20.8673 5.62482 20.9523 5.76862 21.0159 5.92157ZM10.8198 0.627451C10.9678 0.618168 11.1116 0.637776 11.2512 0.686274C14.2121 2.4086 17.1795 4.12102 20.1532 5.82353C20.4079 6.02455 20.4537 6.26635 20.2904 6.54902C20.0699 6.75098 19.8411 6.75749 19.6042 6.56862C16.8068 4.94772 14.0094 3.32679 11.212 1.70588C11.0551 1.62745 10.8983 1.62745 10.7414 1.70588C7.94405 3.32679 5.14664 4.94772 2.34926 6.56862C1.93325 6.80286 1.67181 6.69172 1.56495 6.23529C1.56875 6.0551 1.64718 5.91784 1.80024 5.82353C4.81417 4.09557 7.82071 2.36356 10.8198 0.627451ZM10.9375 2.31372C13.6476 3.85844 16.3535 5.414 19.0551 6.98039C19.0944 8.14349 19.1074 9.3069 19.0944 10.4706C16.5976 10.464 14.1009 10.4706 11.6042 10.4902C11.4408 10.5288 11.3624 10.6334 11.3689 10.8039C11.3611 10.9323 11.4133 11.0238 11.5257 11.0784C14.493 11.098 17.4604 11.1046 20.4277 11.098C20.4277 11.3725 20.4277 11.6471 20.4277 11.9216C14.1401 11.9216 7.85252 11.9216 1.56495 11.9216C1.56495 11.6471 1.56495 11.3725 1.56495 11.098C4.54537 11.1046 7.52577 11.098 10.5061 11.0784C10.6185 11.0238 10.6708 10.9323 10.663 10.8039C10.6695 10.6334 10.5911 10.5288 10.4277 10.4902C7.90487 10.4706 5.38197 10.464 2.85907 10.4706C2.846 9.3069 2.85908 8.14349 2.89828 6.98039C5.58691 5.43368 8.26663 3.87813 10.9375 2.31372ZM2.62377 12.549C3.82639 12.549 5.02899 12.549 6.23162 12.549C6.23162 12.7712 6.23162 12.9934 6.23162 13.2157C5.02899 13.2157 3.82639 13.2157 2.62377 13.2157C2.62377 12.9934 2.62377 12.7712 2.62377 12.549ZM6.85907 12.549C7.42114 12.549 7.98326 12.549 8.54534 12.549C8.53883 12.863 8.54534 13.1767 8.56495 13.4902C8.62761 13.6705 8.75181 13.7816 8.9375 13.8235C9.08071 13.8431 9.22448 13.8496 9.36887 13.8431C9.36887 14.7843 9.36887 15.7255 9.36887 16.6667C9.19844 16.6601 9.02852 16.6667 8.85907 16.6863C8.75432 16.7353 8.66938 16.8072 8.60416 16.902C8.54871 17.2517 8.5291 17.6046 8.54534 17.9608C7.98326 17.9608 7.42114 17.9608 6.85907 17.9608C6.86558 17.6337 6.85907 17.3069 6.83946 16.9804C6.79369 16.8301 6.69565 16.732 6.54534 16.6863C6.37589 16.6667 6.20597 16.6601 6.03554 16.6667C6.03554 15.7255 6.03554 14.7843 6.03554 13.8431C6.33522 13.898 6.59013 13.8195 6.80024 13.6078C6.85683 13.2591 6.87644 12.9062 6.85907 12.549ZM9.17279 12.549C10.3754 12.549 11.578 12.549 12.7806 12.549C12.7806 12.7712 12.7806 12.9934 12.7806 13.2157C11.578 13.2157 10.3754 13.2157 9.17279 13.2157C9.17279 12.9934 9.17279 12.7712 9.17279 12.549ZM13.4081 12.549C13.9702 12.549 14.5323 12.549 15.0944 12.549C15.077 12.9062 15.0966 13.2591 15.1532 13.6078C15.3633 13.8195 15.6182 13.898 15.9179 13.8431C15.9179 14.7843 15.9179 15.7255 15.9179 16.6667C15.7475 16.6601 15.5775 16.6667 15.4081 16.6863C15.2578 16.732 15.1597 16.8301 15.114 16.9804C15.0944 17.3069 15.0878 17.6337 15.0944 17.9608C14.5323 17.9608 13.9702 17.9608 13.4081 17.9608C13.4243 17.6046 13.4047 17.2517 13.3493 16.902C13.284 16.8072 13.1991 16.7353 13.0944 16.6863C12.9249 16.6667 12.755 16.6601 12.5846 16.6667C12.5846 15.7255 12.5846 14.7843 12.5846 13.8431C12.7289 13.8496 12.8727 13.8431 13.0159 13.8235C13.2016 13.7816 13.3258 13.6705 13.3885 13.4902C13.4081 13.1767 13.4146 12.863 13.4081 12.549ZM15.7218 12.549C16.9244 12.549 18.127 12.549 19.3296 12.549C19.3296 12.7712 19.3296 12.9934 19.3296 13.2157C18.127 13.2157 16.9244 13.2157 15.7218 13.2157C15.7218 12.9934 15.7218 12.7712 15.7218 12.549ZM3.4473 13.8431C4.1009 13.8431 4.75449 13.8431 5.40809 13.8431C5.40809 14.7843 5.40809 15.7255 5.40809 16.6667C4.75449 16.6667 4.1009 16.6667 3.4473 16.6667C3.4473 15.7255 3.4473 14.7843 3.4473 13.8431ZM9.99632 13.8431C10.6499 13.8431 11.3035 13.8431 11.9571 13.8431C11.9571 14.7843 11.9571 15.7255 11.9571 16.6667C11.3035 16.6667 10.6499 16.6667 9.99632 16.6667C9.99632 15.7255 9.99632 14.7843 9.99632 13.8431ZM16.5453 13.8431C17.1989 13.8431 17.8525 13.8431 18.5061 13.8431C18.5061 14.7843 18.5061 15.7255 18.5061 16.6667C17.8525 16.6667 17.1989 16.6667 16.5453 16.6667C16.5453 15.7255 16.5453 14.7843 16.5453 13.8431ZM2.62377 17.2941C3.82639 17.2941 5.02899 17.2941 6.23162 17.2941C6.23162 17.5163 6.23162 17.7385 6.23162 17.9608C5.02899 17.9608 3.82639 17.9608 2.62377 17.9608C2.62377 17.7385 2.62377 17.5163 2.62377 17.2941ZM9.17279 17.2941C10.3754 17.2941 11.578 17.2941 12.7806 17.2941C12.7806 17.5163 12.7806 17.7385 12.7806 17.9608C11.578 17.9608 10.3754 17.9608 9.17279 17.9608C9.17279 17.7385 9.17279 17.5163 9.17279 17.2941ZM15.7218 17.2941C16.9244 17.2941 18.127 17.2941 19.3296 17.2941C19.3296 17.5163 19.3296 17.7385 19.3296 17.9608C18.127 17.9608 16.9244 17.9608 15.7218 17.9608C15.7218 17.7385 15.7218 17.5163 15.7218 17.2941Z" fill="#2864DC"/>
</g>
<g id="Group_2">
<path id="Vector_2" opacity="0.925" fill-rule="evenodd" clip-rule="evenodd" d="M10.7807 3.37254C11.7928 3.35847 12.283 3.8552 12.2513 4.86274C12.0076 5.68086 11.4652 6.00113 10.6238 5.82352C9.91705 5.52188 9.64905 4.99246 9.81991 4.23529C9.98799 3.77284 10.3083 3.48526 10.7807 3.37254ZM10.8591 3.99999C10.7403 4.06309 10.6292 4.14152 10.5258 4.23529C10.3253 4.55525 10.358 4.84937 10.6238 5.11764C11.0142 5.34921 11.3345 5.27729 11.5846 4.90195C11.7145 4.30607 11.4727 4.00545 10.8591 3.99999Z" fill="#2864DC"/>
</g>
<g id="Group_3">
<path id="Vector_3" opacity="0.924" fill-rule="evenodd" clip-rule="evenodd" d="M14.506 6.70588C14.6508 6.68514 14.775 6.72435 14.8786 6.82353C14.9269 7.02828 14.9531 7.23741 14.957 7.45098C15.1976 7.24965 15.4264 7.03396 15.6433 6.80392C16.0529 6.66502 16.2163 6.80228 16.1335 7.21569C15.817 7.52741 15.4967 7.83459 15.1727 8.13726C15.5072 8.48486 15.8536 8.8182 16.2119 9.13726C16.3174 9.5482 16.1671 9.69851 15.7609 9.58824C15.4811 9.34765 15.2131 9.09275 14.957 8.82353C14.9536 9.06314 14.9274 9.29843 14.8786 9.52941C14.7087 9.68627 14.5387 9.68627 14.3688 9.52941C14.3043 8.65706 14.2912 7.78126 14.3296 6.90196C14.3698 6.8162 14.4286 6.75082 14.506 6.70588Z" fill="#2864DC"/>
</g>
<g id="Group_4">
<path id="Vector_4" opacity="0.941" fill-rule="evenodd" clip-rule="evenodd" d="M5.9181 6.74512C6.27128 6.73861 6.62422 6.74512 6.97693 6.76472C7.52712 7.00225 7.69704 7.40747 7.48673 7.98041C7.90822 8.49837 7.8821 8.99508 7.4083 9.4706C7.32987 9.50982 7.25144 9.54904 7.173 9.58825C6.77014 9.64966 6.36489 9.66272 5.95732 9.62747C5.87234 9.5948 5.81351 9.53598 5.78085 9.451C5.75469 8.61441 5.75469 7.77778 5.78085 6.94119C5.81995 6.8697 5.86571 6.80433 5.9181 6.74512ZM6.38869 7.37257C6.38869 7.51637 6.38869 7.66014 6.38869 7.80394C6.54967 7.81437 6.70653 7.79476 6.85928 7.74512C6.96904 7.61417 6.95598 7.49653 6.82006 7.39217C6.67685 7.37261 6.53308 7.3661 6.38869 7.37257ZM6.38869 8.39217C6.38869 8.60131 6.38869 8.81049 6.38869 9.01962C6.57218 9.02613 6.75516 9.01959 6.93771 9.00002C7.1412 8.88578 7.18697 8.72237 7.07497 8.50982C6.85983 8.40508 6.63104 8.36586 6.38869 8.39217Z" fill="#2864DC"/>
</g>
<g id="Group_5">
<path id="Vector_5" opacity="0.929" fill-rule="evenodd" clip-rule="evenodd" d="M9.32987 6.74509C9.50002 6.71945 9.65038 6.75866 9.78085 6.86274C10.1074 7.6789 10.4146 8.50243 10.7024 9.33333C10.5785 9.68411 10.3759 9.73639 10.0946 9.49019C10.0603 9.36792 10.0146 9.25027 9.95732 9.13725C9.63155 9.09811 9.30477 9.08505 8.97693 9.09803C8.95159 9.26654 8.89277 9.42341 8.80046 9.56862C8.41426 9.71835 8.2443 9.5876 8.29065 9.17646C8.56516 8.45752 8.83967 7.73854 9.11418 7.0196C9.1521 6.89721 9.22399 6.80572 9.32987 6.74509ZM9.44751 7.88235C9.39802 8.06992 9.33269 8.25294 9.25144 8.43137C9.40669 8.47686 9.56355 8.48341 9.72202 8.45097C9.64846 8.24823 9.55697 8.0587 9.44751 7.88235Z" fill="#2864DC"/>
</g>
<g id="Group_6">
<path id="Vector_6" opacity="0.929" fill-rule="evenodd" clip-rule="evenodd" d="M11.4471 6.74507C11.5816 6.72966 11.7057 6.75578 11.8196 6.8235C12.1595 7.32025 12.4993 7.81695 12.8392 8.3137C12.8523 7.84311 12.8654 7.37252 12.8784 6.90194C12.9331 6.78954 13.0246 6.73727 13.1529 6.74507C13.2633 6.74146 13.3548 6.78068 13.4275 6.86272C13.4915 7.7099 13.5046 8.55954 13.4667 9.41174C13.3347 9.61209 13.1582 9.65786 12.9373 9.54899C12.5764 9.06911 12.23 8.57892 11.898 8.07841C11.885 8.54899 11.8719 9.01958 11.8588 9.49017C11.6289 9.71346 11.4329 9.68731 11.2706 9.41174C11.2444 8.60127 11.2444 7.79084 11.2706 6.98037C11.2941 6.87237 11.3529 6.79394 11.4471 6.74507Z" fill="#2864DC"/>
</g>
</g>
</svg>
