<svg width="20" height="20" viewBox="0 0 20 20" fill="none" xmlns="http://www.w3.org/2000/svg">
<g id="Group 1000005948">
<g id="Group">
<path id="Vector" opacity="0.951" fill-rule="evenodd" clip-rule="evenodd" d="M8.67188 0C9.5573 0 10.4427 0 11.3281 0C11.4633 0.0771648 11.5479 0.194352 11.582 0.351562C11.6844 0.902555 11.8016 1.44943 11.9336 1.99219C12.744 2.19716 13.5057 2.51617 14.2188 2.94922C14.2886 2.96955 14.3537 2.95653 14.4141 2.91016C14.8958 2.58464 15.3776 2.25911 15.8594 1.93359C16.0076 1.90089 16.1508 1.91391 16.2891 1.97266C16.8957 2.56622 17.4881 3.17169 18.0664 3.78906C18.0991 3.9373 18.0861 4.08051 18.0273 4.21875C17.6794 4.70984 17.3473 5.21117 17.0312 5.72266C17.4719 6.4452 17.7909 7.21992 17.9883 8.04688C18.5338 8.19512 19.0872 8.31879 19.6484 8.41797C19.8057 8.45207 19.9229 8.53668 20 8.67188C20 9.5573 20 10.4427 20 11.3281C19.9229 11.4633 19.8057 11.5479 19.6484 11.582C19.0975 11.6844 18.5506 11.8016 18.0078 11.9336C17.8029 12.744 17.4838 13.5057 17.0508 14.2188C17.0305 14.2886 17.0435 14.3537 17.0898 14.4141C17.4154 14.8958 17.7409 15.3776 18.0664 15.8594C18.0991 16.0076 18.0861 16.1508 18.0273 16.2891C17.4338 16.8957 16.8283 17.4881 16.2109 18.0664C16.0627 18.0991 15.9195 18.0861 15.7812 18.0273C15.2902 17.6794 14.7888 17.3473 14.2773 17.0312C13.5548 17.4719 12.7801 17.7909 11.9531 17.9883C11.8049 18.5338 11.6812 19.0872 11.582 19.6484C11.5479 19.8057 11.4633 19.9229 11.3281 20C10.4427 20 9.5573 20 8.67188 20C8.53668 19.9229 8.45207 19.8057 8.41797 19.6484C8.31559 19.0975 8.1984 18.5506 8.06641 18.0078C7.25598 17.8029 6.49426 17.4838 5.78125 17.0508C5.71137 17.0305 5.64625 17.0435 5.58594 17.0898C5.10418 17.4154 4.62238 17.7409 4.14062 18.0664C3.99238 18.0991 3.84917 18.0861 3.71094 18.0273C3.10433 17.4338 2.51188 16.8283 1.93359 16.2109C1.90089 16.0627 1.91391 15.9195 1.97266 15.7812C2.32062 15.2902 2.65265 14.7888 2.96875 14.2773C2.52811 13.5548 2.2091 12.7801 2.01172 11.9531C1.46616 11.8049 0.912773 11.6812 0.351562 11.582C0.194352 11.5479 0.0771648 11.4633 0 11.3281C0 10.4427 0 9.5573 0 8.67188C0.0771648 8.53668 0.194352 8.45207 0.351562 8.41797C0.902555 8.31559 1.44943 8.1984 1.99219 8.06641C2.19716 7.25598 2.51617 6.49426 2.94922 5.78125C2.96955 5.71137 2.95653 5.64625 2.91016 5.58594C2.58464 5.10418 2.25911 4.62238 1.93359 4.14062C1.90089 3.99238 1.91391 3.84917 1.97266 3.71094C2.56622 3.10433 3.17169 2.51188 3.78906 1.93359C3.9373 1.90089 4.08051 1.91391 4.21875 1.97266C4.70984 2.32062 5.21117 2.65265 5.72266 2.96875C6.4452 2.52811 7.21992 2.2091 8.04688 2.01172C8.19512 1.46616 8.31879 0.912773 8.41797 0.351562C8.45207 0.194352 8.53668 0.0771648 8.67188 0ZM9.17969 0.78125C9.72672 0.774742 10.2736 0.781254 10.8203 0.800781C10.9487 1.37771 11.0724 1.95714 11.1914 2.53906C11.2239 2.57812 11.2565 2.61719 11.2891 2.65625C11.8561 2.81705 12.416 3.00586 12.9688 3.22266C13.396 3.42959 13.8127 3.65095 14.2188 3.88672C14.3432 3.90187 14.4604 3.87583 14.5703 3.80859C15.0328 3.50574 15.4886 3.19324 15.9375 2.87109C15.9636 2.84505 15.9896 2.84505 16.0156 2.87109C16.4003 3.24925 16.7779 3.63336 17.1484 4.02344C16.8218 4.48684 16.5028 4.95559 16.1914 5.42969C16.0848 5.57941 16.0718 5.73566 16.1523 5.89844C16.7014 6.73641 17.079 7.64785 17.2852 8.63281C17.3307 8.70441 17.3893 8.76301 17.4609 8.80859C18.0429 8.92758 18.6223 9.05125 19.1992 9.17969C19.2253 9.72656 19.2253 10.2734 19.1992 10.8203C18.6223 10.9487 18.0429 11.0724 17.4609 11.1914C17.4219 11.2239 17.3828 11.2565 17.3438 11.2891C17.1829 11.8561 16.9941 12.416 16.7773 12.9688C16.5704 13.396 16.3491 13.8127 16.1133 14.2188C16.0981 14.3432 16.1242 14.4604 16.1914 14.5703C16.4943 15.0328 16.8068 15.4886 17.1289 15.9375C17.155 15.9636 17.155 15.9896 17.1289 16.0156C16.7507 16.4003 16.3666 16.7779 15.9766 17.1484C15.5132 16.8218 15.0444 16.5028 14.5703 16.1914C14.4834 16.1472 14.3923 16.1147 14.2969 16.0938C13.851 16.3109 13.4083 16.5387 12.9688 16.7773C12.4501 16.9936 11.9163 17.1629 11.3672 17.2852C11.2956 17.3307 11.237 17.3893 11.1914 17.4609C11.0724 18.0429 10.9487 18.6223 10.8203 19.1992C10.2734 19.2253 9.72656 19.2253 9.17969 19.1992C9.05125 18.6223 8.92758 18.0429 8.80859 17.4609C8.77605 17.4219 8.74348 17.3828 8.71094 17.3438C7.70715 17.1025 6.76965 16.7054 5.89844 16.1523C5.73566 16.0718 5.57941 16.0848 5.42969 16.1914C4.96719 16.4943 4.51145 16.8068 4.0625 17.1289C4.03645 17.155 4.01043 17.155 3.98438 17.1289C3.5997 16.7507 3.2221 16.3666 2.85156 15.9766C3.17821 15.5132 3.49722 15.0444 3.80859 14.5703C3.85276 14.4834 3.88531 14.3923 3.90625 14.2969C3.68915 13.851 3.46129 13.4083 3.22266 12.9688C3.00639 12.4501 2.83711 11.9163 2.71484 11.3672C2.66927 11.2956 2.61068 11.237 2.53906 11.1914C1.95714 11.0724 1.37771 10.9487 0.800781 10.8203C0.774738 10.2734 0.774738 9.72656 0.800781 9.17969C1.37771 9.05125 1.95714 8.92758 2.53906 8.80859C2.57812 8.77605 2.61719 8.74348 2.65625 8.71094C2.81705 8.14391 3.00586 7.58402 3.22266 7.03125C3.40125 6.6348 3.60958 6.25719 3.84766 5.89844C3.9282 5.73566 3.91519 5.57941 3.80859 5.42969C3.50574 4.96719 3.19324 4.51145 2.87109 4.0625C2.84505 4.03645 2.84505 4.01043 2.87109 3.98438C3.24925 3.5997 3.63336 3.2221 4.02344 2.85156C4.48684 3.17821 4.95559 3.49722 5.42969 3.80859C5.5166 3.85276 5.60773 3.88531 5.70312 3.90625C6.14898 3.68915 6.59172 3.46129 7.03125 3.22266C7.54988 3.00639 8.08371 2.83711 8.63281 2.71484C8.70441 2.66927 8.76301 2.61068 8.80859 2.53906C8.93008 1.95103 9.05379 1.36509 9.17969 0.78125Z" fill="#2864DC"/>
</g>
<g id="Group_2">
<path id="Vector_2" opacity="0.896" fill-rule="evenodd" clip-rule="evenodd" d="M9.80506 4.14063C10.2674 4.0751 10.4564 4.27061 10.372 4.72715C10.1244 4.98783 9.87673 4.98783 9.6291 4.72715C9.56083 4.48636 9.61949 4.29086 9.80506 4.14063Z" fill="#2864DC"/>
</g>
<g id="Group_3">
<path id="Vector_3" opacity="0.945" fill-rule="evenodd" clip-rule="evenodd" d="M8.39863 4.33594C8.78004 4.38242 8.91676 4.59078 8.80879 4.96094C8.77625 5 8.74367 5.03906 8.71113 5.07813C6.71043 5.73121 5.47996 7.08539 5.01973 9.14062C4.77062 10.9325 5.29145 12.4559 6.58223 13.7109C7.08426 12.2846 8.08035 11.4318 9.57051 11.1523C8.35289 10.8529 7.71488 10.0781 7.65645 8.82812C7.71488 7.57813 8.35289 6.80336 9.57051 6.50391C11.022 6.3677 11.94 6.99918 12.3244 8.39844C12.4606 9.84992 11.8291 10.7679 10.4299 11.1523C11.92 11.4318 12.9161 12.2846 13.4182 13.7109C14.9577 12.1752 15.4004 10.3653 14.7463 8.28125C14.126 6.71043 13.0127 5.66227 11.4064 5.13672C11.0798 4.9223 11.0537 4.67488 11.3283 4.39453C11.429 4.3457 11.5331 4.33266 11.6408 4.35547C13.6512 5.01168 14.9858 6.34629 15.6447 8.35938C16.242 10.8093 15.6105 12.8731 13.7502 14.5508C11.8955 15.9486 9.87727 16.235 7.69551 15.4102C5.64973 14.4579 4.47137 12.8628 4.16035 10.625C3.9941 8.46488 4.74281 6.70055 6.40645 5.33203C7.00957 4.87422 7.67363 4.54219 8.39863 4.33594ZM9.68769 7.30469C8.80117 7.59227 8.40402 8.20426 8.49629 9.14062C8.77422 10.0318 9.37969 10.4289 10.3127 10.332C11.2039 10.0541 11.601 9.44863 11.5041 8.51562C11.2254 7.63035 10.6199 7.22668 9.68769 7.30469ZM9.57051 11.9922C8.34059 12.2781 7.58539 13.0398 7.30488 14.2773C7.52004 14.4045 7.74141 14.5217 7.96895 14.6289C9.60332 15.2763 11.1788 15.1591 12.6955 14.2773C12.6532 14.115 12.6077 13.9523 12.5588 13.7891C11.9998 12.4772 11.0037 11.8782 9.57051 11.9922Z" fill="#2864DC"/>
</g>
</g>
</svg>
