<svg width="20" height="20" viewBox="0 0 20 20" fill="none" xmlns="http://www.w3.org/2000/svg">
<g id="Group 1000005945">
<g id="Group">
<path id="Vector" opacity="0.936" fill-rule="evenodd" clip-rule="evenodd" d="M20 8.12749C20 8.22043 20 8.31342 20 8.40637C19.7373 8.76075 19.4509 9.0994 19.1406 9.42231C19.0364 9.44888 18.9323 9.44888 18.8281 9.42231C18.2711 8.95561 17.7177 8.48414 17.168 8.00796C17.1406 11.1289 17.1471 14.2498 17.1875 17.3705C17.9298 17.3639 18.672 17.3705 19.4141 17.3904C19.5058 17.4042 19.5774 17.4507 19.6289 17.5299C19.655 18.3134 19.655 19.0969 19.6289 19.8805C19.5936 19.9283 19.5481 19.9615 19.4922 19.9801C13.1511 20.0066 6.80988 20.0066 0.46875 19.9801C0.408249 19.9317 0.362676 19.8719 0.332031 19.8008C0.293981 19.0402 0.307002 18.2833 0.371094 17.5299C0.418516 17.4682 0.477109 17.4217 0.546875 17.3904C1.30197 17.3705 2.05718 17.3639 2.8125 17.3705C2.81901 14.2629 2.8125 11.1553 2.79297 8.0478C2.26342 8.52023 1.72306 8.9784 1.17188 9.42231C1.06771 9.44888 0.963543 9.44888 0.859375 9.42231C0.563699 9.10107 0.277242 8.77569 0 8.44621C0 8.33996 0 8.23374 0 8.12749C1.49546 6.82179 2.99936 5.52036 4.51172 4.22311C4.51277 2.85336 4.53883 1.4855 4.58984 0.119522C4.62512 0.0716562 4.67066 0.0384559 4.72656 0.0199204C5.33855 -0.00664014 5.95051 -0.00664014 6.5625 0.0199204C6.6341 0.0398407 6.67969 0.0863216 6.69922 0.159363C6.71223 0.876494 6.72527 1.59363 6.73828 2.31076C7.39582 1.74635 8.0534 1.18194 8.71094 0.61753C9.41238 0.0221072 10.1676 -0.057574 10.9766 0.378486C14.0043 2.94229 17.0121 5.5253 20 8.12749ZM5.15625 0.597609C5.46875 0.597609 5.78125 0.597609 6.09375 0.597609C6.10676 1.36832 6.09375 2.13857 6.05469 2.90837C5.76535 3.16542 5.47238 3.41774 5.17578 3.66534C5.15625 2.64285 5.14973 1.62027 5.15625 0.597609ZM9.80469 0.717131C10.1262 0.696203 10.4257 0.769243 10.7031 0.936255C13.5474 3.37897 16.3859 5.82916 19.2188 8.28685C19.2586 8.30685 19.2652 8.33338 19.2383 8.36653C19.1196 8.47422 19.0154 8.59374 18.9258 8.7251C16.1068 6.30147 13.2878 3.87781 10.4688 1.45418C10.1432 1.21514 9.8177 1.21514 9.49219 1.45418C6.6927 3.85789 3.89323 6.26163 1.09375 8.66533C1.06771 8.69191 1.04167 8.69191 1.01562 8.66533C0.925961 8.53398 0.821797 8.41446 0.703125 8.30677C3.5531 5.89147 6.39164 3.4612 9.21875 1.01594C9.39629 0.872267 9.5916 0.772665 9.80469 0.717131ZM9.96094 1.87251C10.1055 1.93321 10.2358 2.01953 10.3516 2.13147C12.4031 3.91187 14.4604 5.68478 16.5234 7.4502C16.5625 10.7568 16.5755 14.0636 16.5625 17.3705C12.1875 17.3705 7.8125 17.3705 3.4375 17.3705C3.44268 14.0897 3.43617 10.8095 3.41797 7.52988C5.60645 5.64948 7.78742 3.76369 9.96094 1.87251ZM0.9375 18.008C6.97918 18.008 13.0208 18.008 19.0625 18.008C19.0625 18.4728 19.0625 18.9376 19.0625 19.4024C13.0208 19.4024 6.97918 19.4024 0.9375 19.4024C0.9375 18.9376 0.9375 18.4728 0.9375 18.008Z" fill="#2864DC"/>
</g>
<g id="Group_2">
<path id="Vector_2" opacity="0.927" fill-rule="evenodd" clip-rule="evenodd" d="M8.94531 5.45813C9.70422 5.51315 10.3422 5.82522 10.8594 6.39438C10.9793 6.35486 11.0965 6.36813 11.2109 6.43423C12.2982 7.54311 13.3854 8.65203 14.4727 9.76092C14.6107 9.95761 14.5977 10.1435 14.4336 10.3187C14.3602 10.5681 14.4448 10.7142 14.6875 10.7569C14.8058 10.7431 14.9099 10.6966 15 10.6175C15.0911 10.5909 15.1823 10.5909 15.2734 10.6175C15.5149 10.8704 15.7623 11.1161 16.0156 11.3545C16.083 11.4524 16.1025 11.5586 16.0742 11.6733C15.5871 12.21 15.0858 12.7345 14.5703 13.247C14.5078 13.2578 14.4492 13.2778 14.3945 13.3067C14.3399 13.2778 14.2813 13.2578 14.2187 13.247C13.9648 12.988 13.7109 12.729 13.457 12.4701C13.431 12.3638 13.431 12.2576 13.457 12.1514C13.6298 11.9777 13.6363 11.7984 13.4766 11.6135C13.4166 11.5767 13.3515 11.5568 13.2812 11.5537C13.157 11.6325 13.0202 11.6857 12.8711 11.7131C12.7943 11.7114 12.7226 11.6915 12.6562 11.6533C12.3112 11.3014 11.9661 10.9495 11.6211 10.5976C9.66144 12.5963 7.70183 14.5949 5.74219 16.5936C5.13012 16.954 4.58973 16.8676 4.12109 16.3346C3.83464 15.8831 3.83464 15.4316 4.12109 14.98C6.06449 12.958 8.02414 10.9461 10 8.94418C9.78515 8.72506 9.57031 8.50594 9.35547 8.28681C9.26133 8.10642 9.29387 7.95371 9.45312 7.82865C9.14715 7.04187 8.58726 6.72315 7.77344 6.87247C7.51558 6.971 7.25516 7.05729 6.99219 7.13144C6.71531 7.08486 6.63066 6.9255 6.73828 6.65335C7.31691 5.94339 8.05258 5.54498 8.94531 5.45813ZM8.78906 6.09558C8.67883 6.1357 8.56164 6.16889 8.4375 6.19518C8.67871 6.26403 8.91308 6.35697 9.14062 6.47407C9.72953 6.88677 10.0485 7.4512 10.0977 8.16729C11.0352 9.12347 11.9727 10.0796 12.9102 11.0358C13.1177 10.9572 13.3325 10.9373 13.5547 10.9761C14.1321 11.2149 14.3275 11.6398 14.1406 12.251C14.2002 12.3788 14.2913 12.4585 14.4141 12.49C14.7266 12.1713 15.0391 11.8525 15.3516 11.5338C15.2669 11.4475 15.1823 11.3612 15.0977 11.2749C14.9709 11.3274 14.8406 11.3672 14.707 11.3944C13.9545 11.2464 13.6875 10.8015 13.9062 10.0597C12.9557 9.09028 12.0052 8.1208 11.0547 7.15136C10.9391 7.16411 10.8219 7.16411 10.7031 7.15136C10.5089 6.95323 10.3136 6.75403 10.1172 6.55375C9.73265 6.23176 9.28996 6.07905 8.78906 6.09558ZM10.3906 9.40235C8.81644 11.0278 7.23441 12.648 5.64453 14.2629C5.61848 14.2895 5.61848 14.316 5.64453 14.3426C5.88418 14.5471 6.11207 14.7663 6.32812 15C6.35418 15.0265 6.38019 15.0265 6.40625 15C7.9948 13.3798 9.58332 11.7596 11.1719 10.1394C10.9275 9.87 10.6671 9.6243 10.3906 9.40235ZM5.15625 14.741C4.9884 14.9322 4.81262 15.1181 4.62891 15.2988C4.53617 15.4738 4.51012 15.6597 4.55078 15.8565C4.69652 16.1466 4.92441 16.2462 5.23437 16.1553C5.47461 15.9568 5.69594 15.7377 5.89844 15.498C5.66324 15.2315 5.41586 14.9792 5.15625 14.741Z" fill="#2864DC"/>
</g>
</g>
</svg>
